<svg xmlns="http://www.w3.org/2000/svg" width="48" height="48" viewBox="0 0 48 48" fill="none">
  <path d="M18 30C12.66 30 2 32.68 2 38V42H34V38C34 32.68 23.34 30 18 30Z" fill="#02CECB"/>
  <path d="M44.2 13.68C44.22 13.46 44.24 13.24 44.24 13C44.24 12.76 44.22 12.54 44.18 12.32L45.66 11.16C45.8 11.06 45.82 10.86 45.74 10.72L44.34 8.3C44.26 8.14 44.06 8.1 43.92 8.14L42.2 8.84C41.84 8.56 41.44 8.34 41.02 8.16L40.76 6.3C40.72 6.12 40.58 6 40.4 6H37.6C37.42 6 37.28 6.12 37.26 6.3L37 8.16C36.58 8.34 36.18 8.58 35.82 8.84L34.08 8.14C33.92 8.08 33.74 8.14 33.66 8.3L32.26 10.72C32.18 10.88 32.2 11.06 32.34 11.16L33.82 12.32C33.78 12.54 33.76 12.78 33.76 13C33.76 13.22 33.78 13.46 33.82 13.68L32.34 14.84C32.2 14.94 32.18 15.14 32.26 15.28L33.66 17.7C33.74 17.86 33.94 17.9 34.08 17.86L35.82 17.16C36.18 17.44 36.58 17.66 37 17.84L37.26 19.7C37.28 19.88 37.42 20 37.6 20H40.4C40.58 20 40.72 19.88 40.74 19.7L41 17.84C41.42 17.66 41.82 17.42 42.18 17.16L43.92 17.86C44.08 17.92 44.26 17.86 44.34 17.7L45.74 15.28C45.82 15.12 45.8 14.94 45.66 14.84L44.2 13.68ZM39 15.5C37.62 15.5 36.5 14.38 36.5 13C36.5 11.62 37.62 10.5 39 10.5C40.38 10.5 41.5 11.62 41.5 13C41.5 14.38 40.38 15.5 39 15.5Z" fill="#02CECB"/>
  <path d="M39.84 23.36L38.84 21.62C38.78 21.5 38.64 21.46 38.54 21.5L37.3 22C37.04 21.8 36.76 21.64 36.46 21.52L36.28 20.2C36.24 20.08 36.12 20 36 20H34C33.88 20 33.78 20.08 33.76 20.22L33.58 21.54C33.28 21.66 33 21.84 32.74 22.02L31.5 21.52C31.38 21.48 31.26 21.52 31.2 21.64L30.2 23.38C30.14 23.5 30.16 23.62 30.26 23.7L31.32 24.52C31.3 24.68 31.28 24.84 31.28 25C31.28 25.16 31.3 25.34 31.32 25.48L30.26 26.3C30.16 26.38 30.14 26.52 30.2 26.62L31.2 28.36C31.26 28.48 31.4 28.52 31.5 28.48L32.74 27.98C33 28.18 33.28 28.34 33.58 28.46L33.76 29.78C33.78 29.92 33.88 30 34 30H36C36.12 30 36.24 29.92 36.24 29.78L36.42 28.46C36.72 28.34 37 28.16 37.26 27.98L38.5 28.48C38.62 28.52 38.74 28.48 38.8 28.36L39.8 26.62C39.86 26.5 39.84 26.38 39.74 26.3L38.7 25.48C38.72 25.32 38.74 25.16 38.74 25C38.74 24.84 38.72 24.66 38.7 24.52L39.76 23.7C39.86 23.62 39.88 23.48 39.84 23.36ZM35 26.66C34.08 26.66 33.34 25.9 33.34 25C33.34 24.08 34.1 23.34 35 23.34C35.9 23.34 36.66 24.1 36.66 25C36.66 25.92 35.92 26.66 35 26.66Z" fill="#02CECB"/>
  <path d="M9.48 18H26.54C27.08 18 27.52 17.56 27.52 17.02V16.98C27.52 16.44 27.08 16 26.54 16H26C26 13.04 24.38 10.5 22 9.1V11C22 11.56 21.56 12 21 12C20.44 12 20 11.56 20 11V8.28C19.36 8.12 18.7 8 18 8C17.3 8 16.64 8.12 16 8.28V11C16 11.56 15.56 12 15 12C14.44 12 14 11.56 14 11V9.1C11.62 10.5 10 13.04 10 16H9.48C8.94 16 8.5 16.44 8.5 16.98V17.04C8.5 17.56 8.94 18 9.48 18Z" fill="#02CECB"/>
  <path d="M18 26C21.72 26 24.82 23.44 25.72 20H10.28C11.18 23.44 14.28 26 18 26Z" fill="#02CECB"/>
</svg>