<svg width="541" height="426" viewBox="0 0 541 426" fill="none" xmlns="http://www.w3.org/2000/svg">
<path d="M239.823 227.311L226.857 309.634H313.29L293.414 227.311H239.823Z" fill="#C9C9C9"/>
<path opacity="0.24" d="M270.064 413.107C419.217 413.107 540.129 389.293 540.129 359.916C540.129 330.539 419.217 306.725 270.064 306.725C120.912 306.725 0 330.539 0 359.916C0 389.293 120.912 413.107 270.064 413.107Z" fill="#E6E6E6"/>
<path d="M207.126 295.196H328.692V321.655H207.126V295.196Z" fill="#E6E6E6"/>
<path d="M382.102 343.786H274.501H263.19H155.59L129.313 413.107H263.19H274.501H408.379L382.102 343.786Z" fill="#E6E6E6"/>
<path d="M317.109 355.333H260.244H251.643H164.828L150.026 401.559H251.643H260.244H333.766L317.109 355.333Z" fill="#C9C9C9"/>
<path opacity="0.42" d="M328.692 355.333L346.732 401.559H391.176L372.209 355.333H328.692Z" fill="#C9C9C9"/>
<path d="M129.313 413.107L138.915 426H397.104L408.379 413.107H129.313Z" fill="#C9C9C9"/>
<path opacity="0.58" d="M68.048 326.019C68.048 326.019 42.3163 319 36.7153 295.105C36.7153 295.105 76.5767 287.031 77.7223 328.202L68.048 326.019Z" fill="#02CECB"/>
<path opacity="0.73" d="M71.194 323.473C71.194 323.473 53.2091 295.05 69.0481 268.464C69.0481 268.464 99.3624 287.722 85.8874 323.528L71.194 323.473Z" fill="#02CECB"/>
<path d="M75.8311 323.492C75.8311 323.492 85.3237 293.468 114.019 287.777C114.019 287.777 119.475 307.271 95.4163 323.565L75.8311 323.492Z" fill="#02CECB"/>
<path d="M57.1734 322.819L62.3743 358.498L95.2345 358.643L100.09 323.001L57.1734 322.819Z" fill="#24285B"/>
<path d="M67.0296 0H462.406V256.88H67.0296V0Z" fill="#E6E6E6"/>
<path d="M81 32H446.28V237.762H81V32Z" fill="#02CECB"/>
<path d="M81.1957 13.3298H446.476V40.4436H81.1957V13.3298Z" fill="#24285B"/>
<path d="M96.7438 31.7508C100.038 31.7508 102.708 29.0804 102.708 25.7862C102.708 22.492 100.038 19.8215 96.7438 19.8215C93.4496 19.8215 90.7791 22.492 90.7791 25.7862C90.7791 29.0804 93.4496 31.7508 96.7438 31.7508Z" fill="white"/>
<path d="M114.51 31.7508C117.805 31.7508 120.475 29.0804 120.475 25.7862C120.475 22.492 117.805 19.8215 114.51 19.8215C111.216 19.8215 108.546 22.492 108.546 25.7862C108.546 29.0804 111.216 31.7508 114.51 31.7508Z" fill="#02CECB"/>
<path d="M131.241 31.7508C134.535 31.7508 137.205 29.0804 137.205 25.7862C137.205 22.492 134.535 19.8215 131.241 19.8215C127.946 19.8215 125.276 22.492 125.276 25.7862C125.276 29.0804 127.946 31.7508 131.241 31.7508Z" fill="#008081"/>
<path d="M269.282 244.26C273.41 244.26 276.756 240.914 276.756 236.786C276.756 232.658 273.41 229.312 269.282 229.312C265.155 229.312 261.808 232.658 261.808 236.786C261.808 240.914 265.155 244.26 269.282 244.26Z" fill="#A5A5A5"/>
<path d="M81.2139 40.4429H143.715V219.092H81.2139V40.4429Z" fill="#008081"/>
<path d="M383.975 40.4429H446.494V219.092H383.975V40.4429Z" fill="#008081"/>
<path opacity="0.1" d="M260.354 130.877L329.984 90.4153L329.784 162.173L260.154 202.634L260.354 130.877Z" fill="black"/>
<path opacity="0.44" d="M197.907 94.8162L267.537 54.3547L329.984 90.4154L260.354 130.877L197.907 94.8162Z" fill="white"/>
<path opacity="0.2" d="M260.354 130.877L260.153 202.635L197.706 166.574L197.907 94.8162L260.354 130.877Z" fill="black"/>
<path opacity="0.44" d="M96.5256 60.1011H128.258V88.6332H96.5256V60.1011Z" fill="white"/>
<path opacity="0.44" d="M128.258 204.326H99.7261V175.794L128.258 204.326Z" fill="white"/>
<path opacity="0.44" d="M120.366 116.329H102.036L92.8704 132.204L102.036 148.098H120.366L129.531 132.204L120.366 116.329Z" fill="white"/>
<path opacity="0.44" d="M396.868 74.5039H433.601V81.0141H396.868V74.5039Z" fill="white"/>
<path opacity="0.1" d="M396.868 90.0518H408.579V93.3069H396.868V90.0518Z" fill="black"/>
<path opacity="0.1" d="M413.889 90.0518H433.583V93.3069H413.889V90.0518Z" fill="black"/>
<path opacity="0.1" d="M396.868 102.345H418.344V105.6H396.868V102.345Z" fill="black"/>
<path opacity="0.1" d="M425.745 102.345H433.601V105.6H425.745V102.345Z" fill="black"/>
<path opacity="0.1" d="M396.94 114.565H403.232V117.82H396.94V114.565Z" fill="black"/>
<path opacity="0.1" d="M406.779 114.565H433.656V117.82H406.779V114.565Z" fill="black"/>
<path opacity="0.1" d="M396.94 126.858H427.527V130.113H396.94V126.858Z" fill="black"/>
<path opacity="0.44" d="M396.868 148.571H433.601V155.081H396.868V148.571Z" fill="white"/>
<path opacity="0.1" d="M396.868 164.119H408.579V167.374H396.868V164.119Z" fill="black"/>
<path opacity="0.1" d="M413.889 164.119H433.583V167.374H413.889V164.119Z" fill="black"/>
<path opacity="0.1" d="M396.868 176.412H418.344V179.667H396.868V176.412Z" fill="black"/>
<path opacity="0.1" d="M425.745 176.412H433.601V179.667H425.745V176.412Z" fill="black"/>
<path opacity="0.1" d="M396.94 188.632H403.232V191.887H396.94V188.632Z" fill="black"/>
<path opacity="0.1" d="M406.779 188.632H433.656V191.887H406.779V188.632Z" fill="black"/>
<path opacity="0.1" d="M396.94 200.925H427.527V204.18H396.94V200.925Z" fill="black"/>
<path opacity="0.44" d="M158.663 66.6838L167.119 58.8642L165.937 57.5731L157.318 65.5563V51.2629H155.572V68.4295H173.63V66.6838H158.663Z" fill="white"/>
</svg>
