<svg xmlns="http://www.w3.org/2000/svg" width="40" height="38" viewBox="0 0 40 38" fill="none">
  <path d="M13.4252 11.8451L2.26024 13.4639L2.06249 13.5041C1.76313 13.5836 1.49023 13.7411 1.27165 13.9605C1.05307 14.1799 0.896643 14.4535 0.818346 14.7531C0.740049 15.0528 0.742685 15.3679 0.825985 15.6662C0.909286 15.9645 1.07027 16.2354 1.29249 16.4511L9.38099 24.3244L7.47349 35.4456L7.45074 35.6381C7.43241 35.9477 7.4967 36.2566 7.63702 36.5332C7.77735 36.8098 7.98866 37.0442 8.24932 37.2123C8.50999 37.3803 8.81064 37.4761 9.1205 37.4898C9.43035 37.5035 9.73827 37.4346 10.0127 37.2901L19.9982 32.0401L29.961 37.2901L30.136 37.3706C30.4248 37.4844 30.7388 37.5193 31.0456 37.4717C31.3523 37.4241 31.641 37.2958 31.8818 37.0998C32.1226 36.9039 32.307 36.6474 32.4159 36.3567C32.5249 36.066 32.5546 35.7516 32.502 35.4456L30.5927 24.3244L38.6847 16.4494L38.8212 16.3006C39.0162 16.0605 39.1441 15.7729 39.1917 15.4672C39.2394 15.1616 39.2052 14.8488 39.0926 14.5606C38.9801 14.2725 38.7931 14.0194 38.5508 13.827C38.3086 13.6346 38.0196 13.5099 37.7135 13.4656L26.5485 11.8451L21.5575 1.73011C21.4131 1.43704 21.1895 1.19026 20.9121 1.01769C20.6346 0.845123 20.3145 0.753662 19.9877 0.753662C19.661 0.753662 19.3408 0.845123 19.0634 1.01769C18.786 1.19026 18.5624 1.43704 18.418 1.73011L13.4252 11.8451Z" fill="#02CECB"/>
</svg>